<mxfile host="app.diagrams.net" modified="2022-10-15T23:38:59.288Z" agent="5.0 (X11; Ubuntu)" etag="CYNZEC6qw42f_TkqREo-" version="20.2.3" type="github">
  <diagram id="wd3Sw0RTQ_WEwJ2zXuom" name="Page-1">
    <mxGraphModel dx="1102" dy="567" grid="1" gridSize="10" guides="1" tooltips="1" connect="1" arrows="1" fold="1" page="1" pageScale="1" pageWidth="850" pageHeight="1100" math="0" shadow="0">
      <root>
        <mxCell id="0" />
        <mxCell id="1" parent="0" />
        <mxCell id="zGivxHXYcN0-czmQzqbh-19" value="" style="rounded=0;whiteSpace=wrap;html=1;dashed=1;fillColor=none;" parent="1" vertex="1">
          <mxGeometry x="50" y="60" width="470" height="200" as="geometry" />
        </mxCell>
        <mxCell id="zGivxHXYcN0-czmQzqbh-22" value="" style="rounded=0;whiteSpace=wrap;html=1;dashed=1;fillColor=none;" parent="1" vertex="1">
          <mxGeometry x="42" y="50" width="720" height="260" as="geometry" />
        </mxCell>
        <mxCell id="zGivxHXYcN0-czmQzqbh-59" value="" style="rounded=0;whiteSpace=wrap;html=1;fillColor=none;dashed=1;" parent="1" vertex="1">
          <mxGeometry x="330" y="330" width="430" height="290" as="geometry" />
        </mxCell>
        <mxCell id="zGivxHXYcN0-czmQzqbh-1" value="IPS" style="sketch=0;points=[[0.015,0.015,0],[0.985,0.015,0],[0.985,0.985,0],[0.015,0.985,0],[0.25,0,0],[0.5,0,0],[0.75,0,0],[1,0.25,0],[1,0.5,0],[1,0.75,0],[0.75,1,0],[0.5,1,0],[0.25,1,0],[0,0.75,0],[0,0.5,0],[0,0.25,0]];verticalLabelPosition=bottom;html=1;verticalAlign=top;aspect=fixed;align=center;pointerEvents=1;shape=mxgraph.cisco19.rect;prIcon=ips_ids;fillColor=#FAFAFA;strokeColor=#005073;" parent="1" vertex="1">
          <mxGeometry x="630" y="98.91" width="92.39" height="72.18" as="geometry" />
        </mxCell>
        <mxCell id="zGivxHXYcN0-czmQzqbh-2" value="Router" style="image;html=1;image=img/lib/clip_art/networking/Router_Icon_128x128.png" parent="1" vertex="1">
          <mxGeometry x="425" y="98.91" width="75" height="75" as="geometry" />
        </mxCell>
        <mxCell id="zGivxHXYcN0-czmQzqbh-8" value="Browser" style="sketch=0;pointerEvents=1;shadow=0;dashed=0;html=1;strokeColor=none;fillColor=#434445;aspect=fixed;labelPosition=center;verticalLabelPosition=bottom;verticalAlign=top;align=center;outlineConnect=0;shape=mxgraph.vvd.web_browser;" parent="1" vertex="1">
          <mxGeometry x="80" y="104.38" width="78.34" height="55.62" as="geometry" />
        </mxCell>
        <mxCell id="zGivxHXYcN0-czmQzqbh-9" value="Resolver" style="sketch=0;outlineConnect=0;fontColor=#232F3E;gradientColor=none;fillColor=#4D27AA;strokeColor=none;dashed=0;verticalLabelPosition=bottom;verticalAlign=top;align=center;html=1;fontSize=12;fontStyle=0;aspect=fixed;pointerEvents=1;shape=mxgraph.aws4.route_53_resolver_query_logging;" parent="1" vertex="1">
          <mxGeometry x="260" y="107.82" width="54.37" height="54.37" as="geometry" />
        </mxCell>
        <mxCell id="zGivxHXYcN0-czmQzqbh-10" value="" style="endArrow=classic;html=1;rounded=0;" parent="1" edge="1">
          <mxGeometry width="50" height="50" relative="1" as="geometry">
            <mxPoint x="160" y="120" as="sourcePoint" />
            <mxPoint x="260" y="120" as="targetPoint" />
          </mxGeometry>
        </mxCell>
        <mxCell id="zGivxHXYcN0-czmQzqbh-11" value="dns.resolve()" style="edgeLabel;html=1;align=center;verticalAlign=middle;resizable=0;points=[];" parent="zGivxHXYcN0-czmQzqbh-10" vertex="1" connectable="0">
          <mxGeometry x="-0.24" y="-1" relative="1" as="geometry">
            <mxPoint as="offset" />
          </mxGeometry>
        </mxCell>
        <mxCell id="zGivxHXYcN0-czmQzqbh-12" value="" style="endArrow=classic;html=1;rounded=0;" parent="1" edge="1">
          <mxGeometry width="50" height="50" relative="1" as="geometry">
            <mxPoint x="340" y="120" as="sourcePoint" />
            <mxPoint x="420" y="120" as="targetPoint" />
          </mxGeometry>
        </mxCell>
        <mxCell id="zGivxHXYcN0-czmQzqbh-14" value="dns lookup" style="edgeLabel;html=1;align=center;verticalAlign=middle;resizable=0;points=[];" parent="zGivxHXYcN0-czmQzqbh-12" vertex="1" connectable="0">
          <mxGeometry x="-0.525" y="2" relative="1" as="geometry">
            <mxPoint as="offset" />
          </mxGeometry>
        </mxCell>
        <mxCell id="zGivxHXYcN0-czmQzqbh-13" value="" style="endArrow=classic;html=1;rounded=0;" parent="1" edge="1">
          <mxGeometry width="50" height="50" relative="1" as="geometry">
            <mxPoint x="530" y="120" as="sourcePoint" />
            <mxPoint x="610" y="120" as="targetPoint" />
          </mxGeometry>
        </mxCell>
        <mxCell id="zGivxHXYcN0-czmQzqbh-15" value="dns lookup" style="edgeLabel;html=1;align=center;verticalAlign=middle;resizable=0;points=[];" parent="zGivxHXYcN0-czmQzqbh-13" vertex="1" connectable="0">
          <mxGeometry x="-0.25" y="-1" relative="1" as="geometry">
            <mxPoint as="offset" />
          </mxGeometry>
        </mxCell>
        <mxCell id="zGivxHXYcN0-czmQzqbh-16" value="" style="rounded=0;whiteSpace=wrap;html=1;fillColor=none;dashed=1;" parent="1" vertex="1">
          <mxGeometry x="60" y="80" width="270" height="130" as="geometry" />
        </mxCell>
        <mxCell id="zGivxHXYcN0-czmQzqbh-18" value="System level address resolution" style="text;html=1;align=center;verticalAlign=middle;resizable=0;points=[];autosize=1;strokeColor=none;fillColor=none;" parent="1" vertex="1">
          <mxGeometry x="95" y="185" width="190" height="30" as="geometry" />
        </mxCell>
        <mxCell id="zGivxHXYcN0-czmQzqbh-21" value="Local network level address resolution" style="text;html=1;align=center;verticalAlign=middle;resizable=0;points=[];autosize=1;strokeColor=none;fillColor=none;" parent="1" vertex="1">
          <mxGeometry x="170" y="230" width="230" height="30" as="geometry" />
        </mxCell>
        <mxCell id="zGivxHXYcN0-czmQzqbh-23" value="&lt;b&gt;Recursive DNS&lt;/b&gt;" style="text;html=1;align=center;verticalAlign=middle;resizable=0;points=[];autosize=1;strokeColor=none;fillColor=none;" parent="1" vertex="1">
          <mxGeometry x="345" y="280" width="110" height="30" as="geometry" />
        </mxCell>
        <mxCell id="zGivxHXYcN0-czmQzqbh-24" value="" style="endArrow=classic;html=1;rounded=0;" parent="1" edge="1">
          <mxGeometry width="50" height="50" relative="1" as="geometry">
            <mxPoint x="630" y="150" as="sourcePoint" />
            <mxPoint x="510" y="150" as="targetPoint" />
          </mxGeometry>
        </mxCell>
        <mxCell id="zGivxHXYcN0-czmQzqbh-25" value="dns response" style="edgeLabel;html=1;align=center;verticalAlign=middle;resizable=0;points=[];" parent="zGivxHXYcN0-czmQzqbh-24" vertex="1" connectable="0">
          <mxGeometry x="0.4" y="-4" relative="1" as="geometry">
            <mxPoint x="24" as="offset" />
          </mxGeometry>
        </mxCell>
        <mxCell id="zGivxHXYcN0-czmQzqbh-26" value="" style="endArrow=classic;html=1;rounded=0;" parent="1" edge="1">
          <mxGeometry width="50" height="50" relative="1" as="geometry">
            <mxPoint x="420" y="150" as="sourcePoint" />
            <mxPoint x="330" y="150" as="targetPoint" />
          </mxGeometry>
        </mxCell>
        <mxCell id="zGivxHXYcN0-czmQzqbh-27" value="dns response" style="edgeLabel;html=1;align=center;verticalAlign=middle;resizable=0;points=[];" parent="zGivxHXYcN0-czmQzqbh-26" vertex="1" connectable="0">
          <mxGeometry x="0.4" y="-4" relative="1" as="geometry">
            <mxPoint x="24" as="offset" />
          </mxGeometry>
        </mxCell>
        <mxCell id="zGivxHXYcN0-czmQzqbh-28" value="" style="endArrow=classic;html=1;rounded=0;" parent="1" edge="1">
          <mxGeometry width="50" height="50" relative="1" as="geometry">
            <mxPoint x="250" y="150" as="sourcePoint" />
            <mxPoint x="160" y="150" as="targetPoint" />
          </mxGeometry>
        </mxCell>
        <mxCell id="zGivxHXYcN0-czmQzqbh-29" value="dns response" style="edgeLabel;html=1;align=center;verticalAlign=middle;resizable=0;points=[];" parent="zGivxHXYcN0-czmQzqbh-28" vertex="1" connectable="0">
          <mxGeometry x="0.4" y="-4" relative="1" as="geometry">
            <mxPoint x="24" as="offset" />
          </mxGeometry>
        </mxCell>
        <mxCell id="zGivxHXYcN0-czmQzqbh-31" value="DNS iterator" style="aspect=fixed;perimeter=ellipsePerimeter;html=1;align=center;shadow=0;dashed=0;spacingTop=3;image;image=img/lib/active_directory/generic_server.svg;fillColor=none;" parent="1" vertex="1">
          <mxGeometry x="690" y="400" width="28.000000000000004" height="50" as="geometry" />
        </mxCell>
        <mxCell id="zGivxHXYcN0-czmQzqbh-32" value="" style="aspect=fixed;perimeter=ellipsePerimeter;html=1;align=center;shadow=0;dashed=0;spacingTop=3;image;image=img/lib/active_directory/database_server.svg;fillColor=none;" parent="1" vertex="1">
          <mxGeometry x="400" y="340" width="41" height="50" as="geometry" />
        </mxCell>
        <mxCell id="zGivxHXYcN0-czmQzqbh-33" value="" style="aspect=fixed;perimeter=ellipsePerimeter;html=1;align=center;shadow=0;dashed=0;spacingTop=3;image;image=img/lib/active_directory/database_server.svg;fillColor=none;" parent="1" vertex="1">
          <mxGeometry x="400" y="510" width="41" height="50" as="geometry" />
        </mxCell>
        <mxCell id="zGivxHXYcN0-czmQzqbh-34" value="" style="aspect=fixed;perimeter=ellipsePerimeter;html=1;align=center;shadow=0;dashed=0;spacingTop=3;image;image=img/lib/active_directory/database_server.svg;fillColor=none;" parent="1" vertex="1">
          <mxGeometry x="400" y="430" width="41" height="50" as="geometry" />
        </mxCell>
        <mxCell id="zGivxHXYcN0-czmQzqbh-35" value="" style="curved=1;endArrow=classic;html=1;rounded=0;entryX=1;entryY=0.25;entryDx=0;entryDy=0;exitX=0.75;exitY=0;exitDx=0;exitDy=0;" parent="1" source="zGivxHXYcN0-czmQzqbh-31" target="zGivxHXYcN0-czmQzqbh-32" edge="1">
          <mxGeometry width="50" height="50" relative="1" as="geometry">
            <mxPoint x="690" y="360" as="sourcePoint" />
            <mxPoint x="740" y="310" as="targetPoint" />
            <Array as="points">
              <mxPoint x="690" y="370" />
              <mxPoint x="610" y="360" />
            </Array>
          </mxGeometry>
        </mxCell>
        <mxCell id="zGivxHXYcN0-czmQzqbh-38" value="root domain" style="text;html=1;align=center;verticalAlign=middle;resizable=0;points=[];autosize=1;strokeColor=none;fillColor=none;" parent="1" vertex="1">
          <mxGeometry x="375" y="385" width="90" height="30" as="geometry" />
        </mxCell>
        <mxCell id="zGivxHXYcN0-czmQzqbh-39" value="top-level domain" style="text;html=1;align=center;verticalAlign=middle;resizable=0;points=[];autosize=1;strokeColor=none;fillColor=none;" parent="1" vertex="1">
          <mxGeometry x="355" y="475" width="110" height="30" as="geometry" />
        </mxCell>
        <mxCell id="zGivxHXYcN0-czmQzqbh-40" value="second-level domain" style="text;html=1;align=center;verticalAlign=middle;resizable=0;points=[];autosize=1;strokeColor=none;fillColor=none;" parent="1" vertex="1">
          <mxGeometry x="345" y="555" width="130" height="30" as="geometry" />
        </mxCell>
        <mxCell id="zGivxHXYcN0-czmQzqbh-41" value="what is the IP of www.google.com" style="ellipse;shape=cloud;whiteSpace=wrap;html=1;fillColor=default;rotation=10;" parent="1" vertex="1">
          <mxGeometry x="540" y="330" width="150" height="50" as="geometry" />
        </mxCell>
        <mxCell id="zGivxHXYcN0-czmQzqbh-42" value="" style="endArrow=classic;html=1;rounded=0;" parent="1" edge="1">
          <mxGeometry width="50" height="50" relative="1" as="geometry">
            <mxPoint x="450" y="380" as="sourcePoint" />
            <mxPoint x="680" y="410" as="targetPoint" />
          </mxGeometry>
        </mxCell>
        <mxCell id="zGivxHXYcN0-czmQzqbh-43" value=".com is X.X.X.X" style="edgeLabel;html=1;align=center;verticalAlign=middle;resizable=0;points=[];rotation=10;" parent="zGivxHXYcN0-czmQzqbh-42" vertex="1" connectable="0">
          <mxGeometry x="0.0963" y="-1" relative="1" as="geometry">
            <mxPoint as="offset" />
          </mxGeometry>
        </mxCell>
        <mxCell id="zGivxHXYcN0-czmQzqbh-44" value="" style="endArrow=classic;html=1;rounded=0;entryX=1;entryY=0.25;entryDx=0;entryDy=0;exitX=0;exitY=0.25;exitDx=0;exitDy=0;" parent="1" source="zGivxHXYcN0-czmQzqbh-31" target="zGivxHXYcN0-czmQzqbh-34" edge="1">
          <mxGeometry width="50" height="50" relative="1" as="geometry">
            <mxPoint x="550" y="480" as="sourcePoint" />
            <mxPoint x="600" y="430" as="targetPoint" />
          </mxGeometry>
        </mxCell>
        <mxCell id="zGivxHXYcN0-czmQzqbh-45" value="" style="endArrow=classic;html=1;rounded=0;" parent="1" edge="1">
          <mxGeometry width="50" height="50" relative="1" as="geometry">
            <mxPoint x="441" y="460" as="sourcePoint" />
            <mxPoint x="690" y="430" as="targetPoint" />
          </mxGeometry>
        </mxCell>
        <mxCell id="zGivxHXYcN0-czmQzqbh-46" value=".google.com is&amp;nbsp; &lt;span style=&quot;font-family:monospace&quot;&gt;&lt;span style=&quot;color:#000000;background-color:#ffffff;&quot;&gt;216.58.223.206&lt;/span&gt;&lt;br&gt;&lt;/span&gt;" style="edgeLabel;html=1;align=center;verticalAlign=middle;resizable=0;points=[];rotation=-5;" parent="zGivxHXYcN0-czmQzqbh-45" vertex="1" connectable="0">
          <mxGeometry x="0.0963" y="-1" relative="1" as="geometry">
            <mxPoint as="offset" />
          </mxGeometry>
        </mxCell>
        <mxCell id="zGivxHXYcN0-czmQzqbh-47" value="" style="endArrow=classic;html=1;rounded=0;entryX=1;entryY=0.25;entryDx=0;entryDy=0;exitX=0;exitY=0.75;exitDx=0;exitDy=0;" parent="1" source="zGivxHXYcN0-czmQzqbh-31" target="zGivxHXYcN0-czmQzqbh-33" edge="1">
          <mxGeometry width="50" height="50" relative="1" as="geometry">
            <mxPoint x="692.11" y="461.04" as="sourcePoint" />
            <mxPoint x="441.0042410673967" y="480.003455359562" as="targetPoint" />
          </mxGeometry>
        </mxCell>
        <mxCell id="zGivxHXYcN0-czmQzqbh-51" value="" style="endArrow=classic;html=1;rounded=0;entryX=0.25;entryY=1;entryDx=0;entryDy=0;" parent="1" target="zGivxHXYcN0-czmQzqbh-31" edge="1">
          <mxGeometry width="50" height="50" relative="1" as="geometry">
            <mxPoint x="450" y="540" as="sourcePoint" />
            <mxPoint x="505" y="500" as="targetPoint" />
          </mxGeometry>
        </mxCell>
        <mxCell id="zGivxHXYcN0-czmQzqbh-52" value="www.google.com is &lt;span style=&quot;font-family:monospace&quot;&gt;&lt;span style=&quot;color:#000000;background-color:#ffffff;&quot;&gt;216.58.223.196&lt;/span&gt;&lt;br&gt;&lt;/span&gt;" style="edgeLabel;html=1;align=center;verticalAlign=middle;resizable=0;points=[];rotation=-20;" parent="zGivxHXYcN0-czmQzqbh-51" vertex="1" connectable="0">
          <mxGeometry x="-0.115" y="-1" relative="1" as="geometry">
            <mxPoint as="offset" />
          </mxGeometry>
        </mxCell>
        <mxCell id="zGivxHXYcN0-czmQzqbh-53" value="" style="endArrow=classic;html=1;rounded=0;exitX=1;exitY=0;exitDx=0;exitDy=0;" parent="1" edge="1">
          <mxGeometry width="50" height="50" relative="1" as="geometry">
            <mxPoint x="716.8994949366115" y="407.3223304703365" as="sourcePoint" />
            <mxPoint x="713" y="170" as="targetPoint" />
          </mxGeometry>
        </mxCell>
        <mxCell id="zGivxHXYcN0-czmQzqbh-54" value="&lt;span style=&quot;font-family:monospace&quot;&gt;&lt;span style=&quot;color:#000000;background-color:#ffffff;&quot;&gt;216.58.223.196&lt;/span&gt;&lt;br&gt;&lt;/span&gt;" style="edgeLabel;html=1;align=center;verticalAlign=middle;resizable=0;points=[];rotation=-90;" parent="zGivxHXYcN0-czmQzqbh-53" vertex="1" connectable="0">
          <mxGeometry x="-0.115" y="-1" relative="1" as="geometry">
            <mxPoint as="offset" />
          </mxGeometry>
        </mxCell>
        <mxCell id="zGivxHXYcN0-czmQzqbh-57" value="" style="endArrow=classic;html=1;rounded=0;exitX=0.903;exitY=0.462;exitDx=0;exitDy=0;exitPerimeter=0;" parent="1" edge="1">
          <mxGeometry width="50" height="50" relative="1" as="geometry">
            <mxPoint x="694.1599999999999" y="170.12" as="sourcePoint" />
            <mxPoint x="706" y="400" as="targetPoint" />
          </mxGeometry>
        </mxCell>
        <mxCell id="zGivxHXYcN0-czmQzqbh-58" value="dns lookup" style="edgeLabel;html=1;align=center;verticalAlign=middle;resizable=0;points=[];rotation=85;" parent="zGivxHXYcN0-czmQzqbh-57" vertex="1" connectable="0">
          <mxGeometry x="-0.115" y="-1" relative="1" as="geometry">
            <mxPoint as="offset" />
          </mxGeometry>
        </mxCell>
        <mxCell id="zGivxHXYcN0-czmQzqbh-60" value="&lt;b&gt;DNS authoritative&lt;/b&gt;" style="text;html=1;align=center;verticalAlign=middle;resizable=0;points=[];autosize=1;strokeColor=none;fillColor=none;" parent="1" vertex="1">
          <mxGeometry x="510" y="590" width="120" height="30" as="geometry" />
        </mxCell>
      </root>
    </mxGraphModel>
  </diagram>
</mxfile>
